<?xml version="1.0" encoding="UTF-8"?>
<svg id="Layer_2" data-name="Layer 2" xmlns="http://www.w3.org/2000/svg" viewBox="0 0 496 496.06">
  <defs>
    <style>
      .cls-1 {
        fill: #fff;
      }
    </style>
  </defs>
  <g id="Layer_1-2" data-name="Layer 1">
    <g>
      <path class="cls-1" d="M464,120.06h-10.39c26.54-29.61,24.06-75.13-5.55-101.67-29.61-26.54-75.13-24.06-101.67,5.55-24.52,27.35-24.52,68.77,0,96.12h-98.39V40.06c0-4.42-3.58-8-8-8h-32c-4.42,0-8,3.58-8,8v80h-8V8.06c0-4.42-3.58-8-8-8h-32c-4.42,0-8,3.58-8,8v112h-8v-56c0-4.42-3.58-8-8-8h-32c-4.42,0-8,3.58-8,8v56h-56c-17.66.02-31.98,14.34-32,32v240c.02,17.66,14.34,31.98,32,32h164.9l-10.67,32h-26.23c-4.42,0-8,3.58-8,8v16h-80c-4.42,0-8,3.58-8,8s3.58,8,8,8h352c4.42,0,8-3.58,8-8s-3.58-8-8-8h-80v-16c0-4.42-3.58-8-8-8h-26.23l-10.67-32h164.9c17.66-.02,31.98-14.34,32-32v-240c-.02-17.66-14.34-31.98-32-32ZM408,16.64c24.55,3.58,43.84,22.87,47.42,47.42h-47.42V16.64ZM403.31,80.06h52.11c-4.4,30.59-32.76,51.83-63.35,47.43-9.28-1.33-18.08-4.98-25.59-10.6l36.83-36.83ZM344,72.06c.04-27.82,20.47-51.41,48-55.42v52.11l-36.83,36.83c-7.26-9.67-11.18-21.43-11.17-33.52ZM216,48.06h16v152h-16V48.06ZM192,136.06h8v64h-8v-64ZM160,16.06h16v184h-16V16.06ZM136,136.06h8v64h-8v-64ZM104,72.06h16v128h-16V72.06ZM328,472.06v8h-160v-8h160ZM203.1,456.06l10.67-32h68.46l10.67,32h-89.8ZM480,392.06c-.01,8.83-7.17,15.99-16,16H32c-8.83-.01-15.99-7.17-16-16v-16h464v16ZM480,360.06H16v-208c.01-8.83,7.17-15.99,16-16h56v64h-8v-48c0-4.42-3.58-8-8-8h-32c-4.42,0-8,3.58-8,8v56c0,4.42,3.58,8,8,8h256c4.42,0,8-3.58,8-8v-56c0-4.42-3.58-8-8-8h-32c-4.42,0-8,3.58-8,8v48h-8v-64h119.08c20.65,10.67,45.19,10.67,65.84,0h31.08c8.83.01,15.99,7.17,16,16v208ZM64,160.06v40h-16v-40h16ZM272,200.06v-40h16v40h-16Z"/>
      <path class="cls-1" d="M88,384.06h-48c-4.42,0-8,3.58-8,8s3.58,8,8,8h48c4.42,0,8-3.58,8-8s-3.58-8-8-8ZM120,384.06h-8c-4.42,0-8,3.58-8,8s3.58,8,8,8h8c4.42,0,8-3.58,8-8s-3.58-8-8-8ZM336,200.06c2.12,0,4.16-.84,5.66-2.34l29.66-29.66h68.69c4.42,0,8-3.58,8-8s-3.58-8-8-8h-72c-2.12,0-4.16.84-5.66,2.34l-32,32c-3.12,3.12-3.12,8.19,0,11.31,1.5,1.5,3.54,2.34,5.66,2.34ZM440,288.06c-8.56,0-16.46,4.57-20.75,11.97l-83.75-48.86c-2.7-12.98-15.41-21.31-28.39-18.61-9.57,1.99-16.98,9.59-18.72,19.21l-84.28,63.21c-7.21-11.11-22.06-14.26-33.17-7.05-3.53,2.29-6.4,5.48-8.31,9.23l-83.3-34.71c-3.09-12.89-16.05-20.84-28.95-17.75-12.89,3.09-20.84,16.05-17.75,28.95s16.05,20.84,28.95,17.75c6.83-1.64,12.6-6.18,15.79-12.44l83.3,34.71c3.1,12.89,16.05,20.82,28.94,17.72,9.24-2.22,16.3-9.69,18-19.04l84.28-63.21c7.21,11.11,22.06,14.26,33.16,7.06,3.17-2.06,5.81-4.83,7.7-8.11l83.75,48.86c2.7,12.98,15.41,21.31,28.39,18.61s21.31-15.41,18.61-28.39c-2.32-11.13-12.12-19.11-23.49-19.11ZM64,288.1c-.01,4.43-3.61,8.01-8.04,8-4.43-.01-8.01-3.61-8-8.04s3.61-8.01,8.04-8c4.41.01,7.99,3.59,8,8v.04ZM184,336.06c-4.42,0-7.99-3.58-8-8v-.04c.02-4.42,3.62-7.98,8.04-7.96,4.42.02,7.98,3.62,7.96,8.04-.02,4.4-3.6,7.96-8,7.96ZM312,264.06c-4.42,0-8-3.58-8-8s3.58-8,8-8,8,3.58,8,8c0,4.42-3.58,7.99-8,8ZM440,320.06c-4.42,0-8-3.58-8-8s3.58-8,8-8,8,3.58,8,8c0,4.42-3.58,7.99-8,8Z"/>
      <path class="cls-1" d="M376,336.06h-56c-4.42,0-8,3.58-8,8s3.58,8,8,8h56c4.42,0,8-3.58,8-8s-3.58-8-8-8ZM376,312.06h-24c-4.42,0-8,3.58-8,8s3.58,8,8,8h24c4.42,0,8-3.58,8-8s-3.58-8-8-8ZM40,240.06h88c4.42,0,8-3.58,8-8s-3.58-8-8-8H40c-4.42,0-8,3.58-8,8s3.58,8,8,8ZM152,240.06h8c4.42,0,8-3.58,8-8s-3.58-8-8-8h-8c-4.42,0-8,3.58-8,8s3.58,8,8,8Z"/>
    </g>
  </g>
</svg>